<svg height="512" viewBox="0 0 64 64" width="512" xmlns="http://www.w3.org/2000/svg"><g id="flat"><path d="m39 30v-6l-8 2v4z" fill="#da1c4b"/><path d="m32 29h6v6h-6z" fill="#fcf05a"/><path d="m32 35-10 3c-1.724.493-3.375-1-2-3l2-3-2-3c-1.167-1.875.276-3.493 2-3l10 3z" fill="#f9bb4b"/><path d="m25 31h7v2h-7z" fill="#d3843d"/><path d="m38 35 10 3c1.724.493 3.375-1 2-3l-2-3 2-3c1.167-1.875-.276-3.493-2-3l-10 3z" fill="#f9bb4b"/><path d="m38 31h7v2h-7z" fill="#d3843d"/><path d="m35 35h-3l-1.087.326-7.913 10.674 8-2v8l4-6z" fill="#e97424"/><path d="m35 35h3l1 .3 8 10.7-8-2v8l-4-6z" fill="#f9bb4b"/><path d="m35 61a3.995 3.995 0 0 0 4-4v-1l-7.87 1.98a3.981 3.981 0 0 0 3.87 3.02z" fill="#da1c4b"/><path d="m35 46-4 6v2l8-2z" fill="#da1c4b"/><path d="m31 54v3a3.514 3.514 0 0 0 .13.98l7.87-1.98v-4z" fill="#55b56a"/><g fill="#da1c4b"><path d="m16 20a4 4 0 1 0 8 0v-.33a21.491 21.491 0 0 1 -8-3.62z"/><path d="m19.37 6.37a11.124 11.124 0 0 0 -1.74 2.24 37.1 37.1 0 0 0 6.37 6.69v-.8a3.452 3.452 0 0 1 1.43-2.81 38.7 38.7 0 0 1 -1.35-8.18 11.621 11.621 0 0 0 -4.71 2.86z"/><path d="m31 22 8-2v-4.39l-8 1.8z"/><path d="m32.19 4.01a17.569 17.569 0 0 0 -2.24 8l.02.02a3.053 3.053 0 0 1 .43.51l7.97-1.79a11.48 11.48 0 0 0 -6.18-6.74z"/></g><path d="m31 26 8-2v-4l-8 2z" fill="#55b56a"/><path d="m38.37 10.75-7.97 1.79a3.49 3.49 0 0 1 .6 1.96v2.91l8-1.8v-1.11a11.4 11.4 0 0 0 -.63-3.75z" fill="#55b56a"/><path d="m27.5 3a11.7 11.7 0 0 0 -3.42.51 38.7 38.7 0 0 0 1.35 8.18 3.412 3.412 0 0 1 2.07-.69 3.454 3.454 0 0 1 2.45 1.01 17.569 17.569 0 0 1 2.24-8 11.311 11.311 0 0 0 -4.69-1.01z" fill="#55b56a"/><path d="m17.63 8.61a11.325 11.325 0 0 0 -1.63 5.89v1.55a21.491 21.491 0 0 0 8 3.62v-4.37a37.1 37.1 0 0 1 -6.37-6.69z" fill="#55b56a"/></g></svg>