<svg height="512pt" viewBox="-61 0 512 512" width="512pt" xmlns="http://www.w3.org/2000/svg"><path d="m300 437c0-24.902344 12.300781-48 33-62.101562 10.5-7.199219 22.5-11.398438 34.800781-12.296876-9.300781-9.300781-21-15.902343-33.601562-22.199218-5.699219-2.703125-11.398438-5.101563-17.097657-7.800782-14.402343-6.300781-30.601562-13.5-47.101562-23.703124v-88.617188l-15-21.28125 15-21.148438v-85.851562h-240v85.855469l15 29.644531-15 12.78125v143.21875c16.5-3.300781 32.699219-1.199219 48 6 25.800781 12.898438 42 38.699219 42 67.5 0 21.597656-9.300781 42.300781-25.800781 56.699219-6 5.101562-12.597657 9.300781-19.5 12 9.300781 3.898437 19.5 6.300781 30.300781 6.300781h196.800781c13.5-.300781 26.097657-3.601562 37.5-9.300781-24.300781-12.898438-39.300781-38.101563-39.300781-65.699219zm0 0" fill="#ff577b"/><path d="m333 374.898438c10.5-7.199219 22.5-11.398438 34.800781-12.296876-9.300781-9.300781-21-15.902343-33.601562-22.199218-5.699219-2.703125-11.398438-5.101563-17.097657-7.800782-14.402343-6.300781-30.601562-13.5-47.101562-23.703124v-88.617188l-15-21.28125 15-21.148438v-85.851562h-83.8125c-18.226562 14.847656-36.1875 30-36.1875 30v390h151.800781c13.5-.300781 26.097657-3.601562 37.5-9.300781-24.300781-12.898438-39.300781-38.101563-39.300781-65.699219 0-24.902344 12.300781-48 33-62.101562zm0 0" fill="#f72635"/><path d="m30 220.28125 60 60 60-60 60 60 60-60.003906v-42.425782l-60 60.003907-60-60-60 60-60-60v42.425781c0 .097656.007812-.097656.007812 0zm0 0" fill="#ffd7b3"/><path d="m150 220.28125 60 60 60-60.003906v-42.425782l-60 60.003907-60-60zm0 0" fill="#ffa89f"/><path d="m390 422c0 35.398438-20.699219 66.300781-50.699219 80.699219-31.839843 15.921875-54.300781-33.851563-54.300781-65.699219 0-49.632812 50.882812-105.550781 82.5-74.699219l.300781.300781c13.199219 13.199219 22.199219 31.5 22.199219 59.398438zm0 0" fill="#ba000e"/><path d="m74.699219 505.699219c-26.097657-11.699219-44.699219-38.097657-44.699219-68.699219v-73.5c3 .640625 105-34.175781 105 73.5 0 37.484375-19.230469 73.265625-60.300781 68.699219zm0 0" fill="#f72635"/><path d="m300 122h-300v-122h300zm0 0" fill="#fff5f5"/><path d="m128.695312 287 21.300782-21.300781 21.300781 21.300781-21.300781 21.300781zm0 0" fill="#ffd7b3"/><path d="m68.695312 167 21.300782-21.300781 21.300781 21.300781-21.300781 21.300781zm0 0" fill="#ffd7b3"/><path d="m188.695312 167 21.300782-21.300781 21.300781 21.300781-21.300781 21.300781zm0 0" fill="#ffa89f"/><path d="m150 0h150v122h-150zm0 0" fill="#eddae7"/><path d="m171.300781 287-21.300781 21.300781v-42.601562zm0 0" fill="#ffa89f"/></svg>