<svg height="512" viewBox="0 0 512 512" width="512" xmlns="http://www.w3.org/2000/svg"><g id="flat"><path d="m364 443.061-10.144-49.569-16.928-13.32-30-51.962-13.856 8 30 51.962 3.072 21.32z" fill="#4799cf"/><path d="m148 443.061 37.856-33.569 3.072-21.32 30-51.962-13.856-8-30 51.962-16.928 13.32z" fill="#4799cf"/><path d="m40 256 48 16 20-8h60v-16h-60l-20-8z" fill="#4799cf"/><path d="m256 80a7.976 7.976 0 0 1 -5.657-2.343l-24-24a8 8 0 0 1 11.314-11.314l18.343 18.344 18.343-18.344a8 8 0 0 1 11.314 11.314l-24 24a7.976 7.976 0 0 1 -5.657 2.343z" fill="#4799cf"/><g fill="#6cbae5"><path d="m256 120a7.976 7.976 0 0 1 -5.657-2.343l-40-40a8 8 0 0 1 11.314-11.314l34.343 34.344 34.343-34.344a8 8 0 0 1 11.314 11.314l-40 40a7.976 7.976 0 0 1 -5.657 2.343z"/><path d="m256 160a7.976 7.976 0 0 1 -5.657-2.343l-40-40a8 8 0 0 1 11.314-11.314l34.343 34.344 34.343-34.344a8 8 0 0 1 11.314 11.314l-40 40a7.976 7.976 0 0 1 -5.657 2.343z"/><path d="m63.862 180.787a8 8 0 0 1 -2.066-15.73l25.058-6.714-6.715-25.057a8 8 0 1 1 15.455-4.141l8.785 32.785a8 8 0 0 1 -5.657 9.8l-32.784 8.784a8.012 8.012 0 0 1 -2.076.273z"/><path d="m76.646 206.643a8 8 0 0 1 -2.065-15.729l46.919-12.571-12.576-46.913a8 8 0 1 1 15.455-4.141l14.641 54.641a8 8 0 0 1 -5.657 9.8l-54.641 14.639a8.048 8.048 0 0 1 -2.076.274z"/><path d="m111.288 226.643a8 8 0 0 1 -2.066-15.729l46.914-12.571-12.571-46.913a8 8 0 1 1 15.455-4.141l14.641 54.641a8 8 0 0 1 -5.657 9.8l-54.641 14.641a8.046 8.046 0 0 1 -2.075.272z"/><path d="m87.872 388.787a8.008 8.008 0 0 1 -7.733-10.073l6.715-25.057-25.054-6.714a8 8 0 1 1 4.142-15.455l32.784 8.784a8 8 0 0 1 5.657 9.8l-8.785 32.785a8 8 0 0 1 -7.726 5.93z"/><path d="m116.656 390.643a8.005 8.005 0 0 1 -7.732-10.073l12.576-46.913-46.919-12.571a8 8 0 0 1 4.141-15.455l54.641 14.641a8 8 0 0 1 5.657 9.8l-14.641 54.641a8 8 0 0 1 -7.723 5.93z"/><path d="m151.3 370.643a8.005 8.005 0 0 1 -7.732-10.073l12.571-46.913-46.914-12.571a8 8 0 0 1 4.141-15.455l54.634 14.641a8 8 0 0 1 5.657 9.8l-14.637 54.639a8 8 0 0 1 -7.72 5.932z"/><path d="m280 472a7.976 7.976 0 0 1 -5.657-2.343l-18.343-18.344-18.343 18.344a8 8 0 0 1 -11.314-11.314l24-24a8 8 0 0 1 11.314 0l24 24a8 8 0 0 1 -5.657 13.657z"/><path d="m296 448a7.976 7.976 0 0 1 -5.657-2.343l-34.343-34.344-34.343 34.344a8 8 0 0 1 -11.314-11.314l40-40a8 8 0 0 1 11.314 0l40 40a8 8 0 0 1 -5.657 13.657z"/><path d="m296 408a7.976 7.976 0 0 1 -5.657-2.343l-34.343-34.344-34.343 34.344a8 8 0 0 1 -11.314-11.314l40-40a8 8 0 0 1 11.314 0l40 40a8 8 0 0 1 -5.657 13.657z"/><path d="m424.128 388.787a8 8 0 0 1 -7.722-5.932l-8.785-32.785a8 8 0 0 1 5.657-9.8l32.784-8.784a8 8 0 1 1 4.142 15.455l-25.058 6.714 6.715 25.057a8.008 8.008 0 0 1 -7.733 10.073z"/><path d="m395.344 390.643a8 8 0 0 1 -7.723-5.932l-14.641-54.641a8 8 0 0 1 5.657-9.8l54.641-14.641a8 8 0 0 1 4.141 15.455l-46.914 12.571 12.571 46.913a8.005 8.005 0 0 1 -7.732 10.073z"/><path d="m360.7 370.643a8 8 0 0 1 -7.723-5.932l-14.638-54.641a8 8 0 0 1 5.657-9.8l54.641-14.641a8 8 0 0 1 4.141 15.455l-46.914 12.571 12.571 46.913a8.005 8.005 0 0 1 -7.732 10.073z"/><path d="m448.138 180.787a8.012 8.012 0 0 1 -2.076-.275l-32.784-8.784a8 8 0 0 1 -5.657-9.8l8.785-32.785a8 8 0 1 1 15.455 4.141l-6.715 25.057 25.058 6.714a8 8 0 0 1 -2.066 15.73z"/><path d="m435.354 206.643a8.048 8.048 0 0 1 -2.076-.274l-54.641-14.641a8 8 0 0 1 -5.657-9.8l14.641-54.641a8 8 0 1 1 15.455 4.141l-12.571 46.913 46.914 12.571a8 8 0 0 1 -2.065 15.729z"/><path d="m400.712 226.643a8.046 8.046 0 0 1 -2.075-.274l-54.637-14.641a8 8 0 0 1 -5.657-9.8l14.641-54.641a8 8 0 1 1 15.455 4.141l-12.571 46.913 46.914 12.571a8 8 0 0 1 -2.066 15.729z"/></g><path d="m472 256-48-16-20 8h-60v16h60l20 8z" fill="#4799cf"/><path d="m364 68.939-37.856 33.569-3.072 21.32-30 51.962 13.856 8 30-51.962 16.928-13.32z" fill="#4799cf"/><path d="m148 68.939 10.144 49.569 16.928 13.32 30 51.962 13.856-8-30-51.962-3.072-21.32z" fill="#4799cf"/><path d="m460.918 365.072-134.564-77.691v-62.762l134.564-77.691a8 8 0 1 0 -8-13.856l-134.564 77.69-54.354-31.381v-155.381a8 8 0 0 0 -16 0v155.381l-54.354 31.381-134.564-77.69a8 8 0 1 0 -8 13.856l134.564 77.691v62.762l-134.564 77.691a8 8 0 1 0 8 13.856l134.564-77.69 54.354 31.381v155.381a8 8 0 0 0 16 0v-155.381l54.354-31.381 134.564 77.69a8 8 0 1 0 8-13.856zm-150.564-86.928-16.42-9.481a39.84 39.84 0 0 0 0-25.326l16.42-9.481zm-54.354 1.856a24 24 0 1 1 24-24 24.028 24.028 0 0 1 -24 24zm46.354-60-16.437 9.49a40 40 0 0 0 -21.917-12.685v-18.948zm-54.354-22.143v18.948a40 40 0 0 0 -21.917 12.685l-16.437-9.49zm-46.354 36 16.42 9.481a39.84 39.84 0 0 0 0 25.326l-16.42 9.481zm8 58.144 16.437-9.49a40 40 0 0 0 21.917 12.689v18.948zm54.354 22.142v-18.943a40 40 0 0 0 21.917-12.685l16.437 9.485z" fill="#4799cf"/></g></svg>